<svg xmlns="http://www.w3.org/2000/svg" version="1.1" xmlns:xlink="http://www.w3.org/1999/xlink" xmlns:svgjs="http://svgjs.com/svgjs" width="1440" height="560" preserveAspectRatio="none" viewBox="0 0 1440 560"><g mask="url(&quot;#SvgjsMask1003&quot;)" fill="none"><path d="M0 13.33C0.66 4.93 2.72 0.79 10.98 0C72.72 -5.88 75.49 0 140 0C210 0 210 0 280 0C350 0 350 0 420 0C490 0 490 0 560 0C599.83 0 609.39 -18.46 639.66 0C679.39 24.23 670.49 85.37 700 85.37C728.89 85.37 717.91 23.5 756.45 0C787.91 -19.18 798.22 0 840 0C910 0 910 0 980 0C1050 0 1050 0 1120 0C1190 0 1190 0 1260 0C1330 0 1330 0 1400 0C1470 0 1505 -35 1540 0C1575 35 1540 70 1540 140C1540 210 1540 210 1540 280C1540 330 1563.15 345.27 1540 380C1516.49 415.27 1484.38 389.47 1446.67 420C1414.38 446.13 1418.19 454.37 1400 493.33C1385.52 524.37 1406.76 547.89 1381.33 560C1336.76 581.22 1320.66 560 1260 560C1190 560 1190 560 1120 560C1050 560 1050 560 980 560C910 560 910 560 840 560C770 560 770 560 700 560C632.96 560 620.26 574.82 565.92 560C550.26 555.73 563.05 521.82 560 521.82C556.95 521.82 569.44 555.72 553.73 560C499.44 574.81 486.87 560 420 560C366.02 560 359.85 573.16 312.05 560C289.85 553.89 298.21 538.59 280 521.45C223.85 468.59 204.2 481.06 163.33 420C134.2 376.49 160.37 312.31 140 312.31C116.88 312.31 98.82 362.39 76.36 420C50.54 486.23 72.77 506.24 43.45 560C34.59 576.24 5.15 576.58 0 560C-16.58 506.58 0 490 0 420C0 350 0 350 0 280C0 210 0 210 0 140C0 76.67 -4.83 74.93 0 13.33" stroke="rgba(252, 233, 106, 1)" stroke-width="2"></path><path d="M420 329C395.05 329 391.11 378.79 391.11 420C391.11 436.11 403.04 443.64 420 443.64C460.82 443.64 506.67 443.89 506.67 420C506.67 386.57 452.83 329 420 329" stroke="rgba(252, 233, 106, 1)" stroke-width="2"></path><path d="M1120 396.67C1093.85 396.67 1065.56 408.45 1065.56 420C1065.56 431.51 1093.81 442.79 1120 442.79C1138.53 442.79 1155 431.49 1155 420C1155 408.43 1138.57 396.67 1120 396.67" stroke="rgba(252, 233, 106, 1)" stroke-width="2"></path><path d="M1527.27 560C1527.27 558.4 1535.55 553.91 1540 553.91C1541.92 553.91 1542.06 559.01 1540 560C1535.69 562.06 1527.27 561.44 1527.27 560" stroke="rgba(252, 233, 106, 1)" stroke-width="2"></path><path d="M0 96.67C29.57 44.66 32.38 32.61 79.61 0C102.38 -15.73 109.81 0 140 0C210 0 210 0 280 0C350 0 350 0 420 0C490 0 490 0 560 0C569.65 0 579.31 -5.62 579.31 0C579.31 11.35 577.3 31.84 560 33.94C497.64 41.5 487.76 9.78 420 19.31C347.76 29.47 342.71 35.65 280 73.33C242.27 96 249.26 106.39 219.13 140C179.26 184.48 183.1 188.62 140 229.51C109.32 258.62 101.39 250.19 71.56 280C31.39 320.15 20.09 369.44 0 369.44C-15.69 369.44 0 324.72 0 280C0 210 0 210 0 140C0 118.34 -10.23 114.66 0 96.67" stroke="rgba(252, 233, 106, 1)" stroke-width="2"></path><path d="M840 54.19C817.19 35.84 812.9 18.72 812.9 0C812.9 -8.37 826.45 0 840 0C910 0 910 0 980 0C1050 0 1050 0 1120 0C1190 0 1190 0 1260 0C1330 0 1330 0 1400 0C1429.16 0 1458.33 -19.44 1458.33 0C1458.33 50.56 1444.68 135.7 1400 140C1345.51 145.24 1320.56 19.09 1260 19.09C1213.61 19.09 1191.8 76.38 1186.11 140C1180.13 206.83 1254.88 232.26 1236.67 280C1221.83 318.92 1175.59 313.33 1120 313.33C1093.12 313.33 1089.2 302.91 1071.72 280C1023.09 216.25 1031.1 208.76 987.78 140C985.24 135.96 984.14 136.81 980 134.4C910.25 93.9 900.74 103.04 840 54.19" stroke="rgba(252, 233, 106, 1)" stroke-width="2"></path><path d="M525 280C525 265.15 541.01 264.18 560 252.9C628.51 212.18 639.99 168.52 700 176C748.72 182.07 733.49 233.35 777.45 280C803.49 307.63 810.45 300.12 840 324.55C895.11 370.12 946.78 372.07 946.78 420C946.78 468.26 892.9 467.94 840 516.92C817.29 537.94 823.08 551.53 795.56 560C753.08 573.07 747.78 560 700 560C657.61 560 615.21 579.06 615.21 560C615.21 531.28 656.93 511.59 700 464.44C720.87 441.59 743.08 443.88 743.08 420C743.08 391.23 730.9 376.6 700 359.13C639.36 324.86 625.02 345.92 560 316.52C537.52 306.36 525 296.96 525 280" stroke="rgba(252, 233, 106, 1)" stroke-width="2"></path><path d="M1429.47 280C1429.47 234.9 1507.45 172.31 1540 172.31C1562.71 172.31 1540 226.15 1540 280C1540 307.27 1556.95 334.55 1540 334.55C1501.69 334.55 1429.47 316.02 1429.47 280" stroke="rgba(252, 233, 106, 1)" stroke-width="2"></path><path d="M221.67 420C221.67 381.92 251.31 336.67 280 336.67C308.25 336.67 335.56 381.72 335.56 420C335.56 448.75 308.09 470.72 280 470.72C251.14 470.72 221.67 448.94 221.67 420" stroke="rgba(252, 233, 106, 1)" stroke-width="2"></path><path d="M354.22 560C354.22 538.9 385.21 489.09 420 489.09C458.85 489.09 501.49 539.79 501.49 560C501.49 575.25 460.75 560 420 560C387.11 560 354.22 574.35 354.22 560" stroke="rgba(252, 233, 106, 1)" stroke-width="2"></path><path d="M991.67 560C991.67 550.88 1060.51 552.41 1120 524.19C1194.67 488.77 1202.98 423.22 1260 432.73C1310.31 441.12 1334.67 517.75 1334.67 560C1334.67 581.38 1297.34 560 1260 560C1190 560 1190 560 1120 560C1055.84 560 991.67 568.78 991.67 560" stroke="rgba(252, 233, 106, 1)" stroke-width="2"></path><path d="M64.62 140C64.62 93.78 112.13 24.71 140 24.71C164.02 24.71 168.41 85.85 168.41 140C168.41 159.56 157.83 172.13 140 172.13C105.93 172.13 64.62 167.49 64.62 140" stroke="rgba(252, 233, 106, 1)" stroke-width="2"></path><path d="M280 17.78C230 17.78 178.18 4.48 178.18 0C178.18 -4.41 229.09 0 280 0C302.4 0 324.8 -4.28 324.8 0C324.8 4.61 303.31 17.78 280 17.78" stroke="rgba(252, 233, 106, 1)" stroke-width="2"></path><path d="M1120 98.52C1062.23 98.52 987 27.31 987 0C987 -21.95 1053.5 0 1120 0C1152.44 0 1184.88 -17.48 1184.88 0C1184.88 31.78 1161.17 98.52 1120 98.52" stroke="rgba(252, 233, 106, 1)" stroke-width="2"></path><path d="M693 280C693 278.19 696.92 276 700 276C701.91 276 702.98 278.1 702.98 280C702.98 281.62 701.79 283.04 700 283.04C696.8 283.04 693 281.71 693 280" stroke="rgba(252, 233, 106, 1)" stroke-width="2"></path><path d="M1521.58 280C1521.58 272.48 1534.58 262.05 1540 262.05C1543.79 262.05 1540 271.02 1540 280C1540 284.54 1542.83 289.09 1540 289.09C1533.62 289.09 1521.58 286 1521.58 280" stroke="rgba(252, 233, 106, 1)" stroke-width="2"></path><path d="M796.92 420C796.92 398.71 817.95 377.58 840 377.58C863.22 377.58 887.46 398.7 887.46 420C887.46 441.45 863.21 463.08 840 463.08C817.94 463.08 796.92 441.46 796.92 420" stroke="rgba(252, 233, 106, 1)" stroke-width="2"></path><path d="M396.39 560C396.39 552.43 407.51 534.55 420 534.55C433.94 534.55 449.25 552.75 449.25 560C449.25 565.47 434.63 560 420 560C408.19 560 396.39 565.15 396.39 560" stroke="rgba(252, 233, 106, 1)" stroke-width="2"></path><path d="M664.51 560C664.51 547.98 681.66 520 700 520C719.4 520 740 548.28 740 560C740 568.28 720 560 700 560C682.26 560 664.51 567.98 664.51 560" stroke="rgba(252, 233, 106, 1)" stroke-width="2"></path><path d="M1187.59 560C1187.59 546.99 1229.35 512.27 1260 512.27C1279.56 512.27 1288 544.15 1288 560C1288 568.02 1274 560 1260 560C1223.8 560 1187.59 570.86 1187.59 560" stroke="rgba(252, 233, 106, 1)" stroke-width="2"></path></g><defs><mask id="SvgjsMask1003"><rect width="1440" height="560" fill="#ffffff"></rect></mask></defs></svg>