<svg xmlns="http://www.w3.org/2000/svg" version="1.1" xmlns:xlink="http://www.w3.org/1999/xlink" xmlns:svgjs="http://svgjs.com/svgjs" width="1440" height="560" preserveAspectRatio="none" viewBox="0 0 1440 560"><g mask="url(&quot;#SvgjsMask1092&quot;)" fill="none"><path d="M355.98 52.71L423.53 91.71L423.53 169.71L355.98 208.71L288.43 169.71L288.43 91.71zM288.43 403.71L355.98 442.71L355.98 520.71L288.43 559.71L220.88 520.71L220.88 442.71zM491.08 286.71L558.64 325.71L558.64 403.71L491.08 442.71L423.53 403.71L423.53 325.71zM558.64 169.71L626.19 208.71L626.19 286.71L558.64 325.71L491.08 286.71L491.08 208.71zM626.19 286.71L693.74 325.71L693.74 403.71L626.19 442.71L558.64 403.71L558.64 325.71zM828.84 403.71L896.39 442.71L896.39 520.71L828.84 559.71L761.29 520.71L761.29 442.71zM963.95 169.71L1031.5 208.71L1031.5 286.71L963.95 325.71L896.39 286.71L896.39 208.71zM1234.15 -64.29L1301.71 -25.29L1301.71 52.71L1234.15 91.71L1166.6 52.71L1166.6 -25.29zM1369.26 403.71L1436.81 442.71L1436.81 520.71L1369.26 559.71L1301.71 520.71L1301.71 442.71z" stroke="rgba(31, 31, 31, 0.9)" stroke-width="2"></path><path d="M348.18 52.71 a7.8 7.8 0 1 0 15.6 0 a7.8 7.8 0 1 0 -15.6 0zM415.73 91.71 a7.8 7.8 0 1 0 15.6 0 a7.8 7.8 0 1 0 -15.6 0zM415.73 169.71 a7.8 7.8 0 1 0 15.6 0 a7.8 7.8 0 1 0 -15.6 0zM348.18 208.71 a7.8 7.8 0 1 0 15.6 0 a7.8 7.8 0 1 0 -15.6 0zM280.63 169.71 a7.8 7.8 0 1 0 15.6 0 a7.8 7.8 0 1 0 -15.6 0zM280.63 91.71 a7.8 7.8 0 1 0 15.6 0 a7.8 7.8 0 1 0 -15.6 0zM280.63 403.71 a7.8 7.8 0 1 0 15.6 0 a7.8 7.8 0 1 0 -15.6 0zM348.18 442.71 a7.8 7.8 0 1 0 15.6 0 a7.8 7.8 0 1 0 -15.6 0zM348.18 520.71 a7.8 7.8 0 1 0 15.6 0 a7.8 7.8 0 1 0 -15.6 0zM280.63 559.71 a7.8 7.8 0 1 0 15.6 0 a7.8 7.8 0 1 0 -15.6 0zM213.08 520.71 a7.8 7.8 0 1 0 15.6 0 a7.8 7.8 0 1 0 -15.6 0zM213.08 442.71 a7.8 7.8 0 1 0 15.6 0 a7.8 7.8 0 1 0 -15.6 0zM483.28 286.71 a7.8 7.8 0 1 0 15.6 0 a7.8 7.8 0 1 0 -15.6 0zM550.84 325.71 a7.8 7.8 0 1 0 15.6 0 a7.8 7.8 0 1 0 -15.6 0zM550.84 403.71 a7.8 7.8 0 1 0 15.6 0 a7.8 7.8 0 1 0 -15.6 0zM483.28 442.71 a7.8 7.8 0 1 0 15.6 0 a7.8 7.8 0 1 0 -15.6 0zM415.73 403.71 a7.8 7.8 0 1 0 15.6 0 a7.8 7.8 0 1 0 -15.6 0zM415.73 325.71 a7.8 7.8 0 1 0 15.6 0 a7.8 7.8 0 1 0 -15.6 0zM550.84 169.71 a7.8 7.8 0 1 0 15.6 0 a7.8 7.8 0 1 0 -15.6 0zM618.39 208.71 a7.8 7.8 0 1 0 15.6 0 a7.8 7.8 0 1 0 -15.6 0zM618.39 286.71 a7.8 7.8 0 1 0 15.6 0 a7.8 7.8 0 1 0 -15.6 0zM483.28 208.71 a7.8 7.8 0 1 0 15.6 0 a7.8 7.8 0 1 0 -15.6 0zM685.94 325.71 a7.8 7.8 0 1 0 15.6 0 a7.8 7.8 0 1 0 -15.6 0zM685.94 403.71 a7.8 7.8 0 1 0 15.6 0 a7.8 7.8 0 1 0 -15.6 0zM618.39 442.71 a7.8 7.8 0 1 0 15.6 0 a7.8 7.8 0 1 0 -15.6 0zM821.04 403.71 a7.8 7.8 0 1 0 15.6 0 a7.8 7.8 0 1 0 -15.6 0zM888.59 442.71 a7.8 7.8 0 1 0 15.6 0 a7.8 7.8 0 1 0 -15.6 0zM888.59 520.71 a7.8 7.8 0 1 0 15.6 0 a7.8 7.8 0 1 0 -15.6 0zM821.04 559.71 a7.8 7.8 0 1 0 15.6 0 a7.8 7.8 0 1 0 -15.6 0zM753.49 520.71 a7.8 7.8 0 1 0 15.6 0 a7.8 7.8 0 1 0 -15.6 0zM753.49 442.71 a7.8 7.8 0 1 0 15.6 0 a7.8 7.8 0 1 0 -15.6 0zM956.15 169.71 a7.8 7.8 0 1 0 15.6 0 a7.8 7.8 0 1 0 -15.6 0zM1023.7 208.71 a7.8 7.8 0 1 0 15.6 0 a7.8 7.8 0 1 0 -15.6 0zM1023.7 286.71 a7.8 7.8 0 1 0 15.6 0 a7.8 7.8 0 1 0 -15.6 0zM956.15 325.71 a7.8 7.8 0 1 0 15.6 0 a7.8 7.8 0 1 0 -15.6 0zM888.59 286.71 a7.8 7.8 0 1 0 15.6 0 a7.8 7.8 0 1 0 -15.6 0zM888.59 208.71 a7.8 7.8 0 1 0 15.6 0 a7.8 7.8 0 1 0 -15.6 0zM1226.35 -64.29 a7.8 7.8 0 1 0 15.6 0 a7.8 7.8 0 1 0 -15.6 0zM1293.91 -25.29 a7.8 7.8 0 1 0 15.6 0 a7.8 7.8 0 1 0 -15.6 0zM1293.91 52.71 a7.8 7.8 0 1 0 15.6 0 a7.8 7.8 0 1 0 -15.6 0zM1226.35 91.71 a7.8 7.8 0 1 0 15.6 0 a7.8 7.8 0 1 0 -15.6 0zM1158.8 52.71 a7.8 7.8 0 1 0 15.6 0 a7.8 7.8 0 1 0 -15.6 0zM1158.8 -25.29 a7.8 7.8 0 1 0 15.6 0 a7.8 7.8 0 1 0 -15.6 0zM1361.46 403.71 a7.8 7.8 0 1 0 15.6 0 a7.8 7.8 0 1 0 -15.6 0zM1429.01 442.71 a7.8 7.8 0 1 0 15.6 0 a7.8 7.8 0 1 0 -15.6 0zM1429.01 520.71 a7.8 7.8 0 1 0 15.6 0 a7.8 7.8 0 1 0 -15.6 0zM1361.46 559.71 a7.8 7.8 0 1 0 15.6 0 a7.8 7.8 0 1 0 -15.6 0zM1293.91 520.71 a7.8 7.8 0 1 0 15.6 0 a7.8 7.8 0 1 0 -15.6 0zM1293.91 442.71 a7.8 7.8 0 1 0 15.6 0 a7.8 7.8 0 1 0 -15.6 0z" fill="rgba(31, 31, 31, 0.9)"></path><path d="M291.97 74.5L377.71 124L377.71 223L291.97 272.5L206.23 223L206.23 124zM291.97 371.5L377.71 421L377.71 520L291.97 569.5L206.23 520L206.23 421zM806.4 74.5L892.14 124L892.14 223L806.4 272.5L720.66 223L720.66 124zM892.14 223L977.88 272.5L977.88 371.5L892.14 421L806.4 371.5L806.4 272.5zM1063.62 -74L1149.36 -24.5L1149.36 74.5L1063.62 124L977.88 74.5L977.88 -24.5zM1149.36 74.5L1235.1 124L1235.1 223L1149.36 272.5L1063.62 223L1063.62 124zM1406.57 -74L1492.31 -24.5L1492.31 74.5L1406.57 124L1320.83 74.5L1320.83 -24.5z" stroke="rgba(252, 233, 106, 1)" stroke-width="2"></path></g><defs><mask id="SvgjsMask1092"><rect width="1440" height="560" fill="#ffffff"></rect></mask></defs></svg>