<svg xmlns="http://www.w3.org/2000/svg" version="1.1" xmlns:xlink="http://www.w3.org/1999/xlink" xmlns:svgjs="http://svgjs.com/svgjs" width="1440" height="560" preserveAspectRatio="none" viewBox="0 0 1440 560"><g mask="url(&quot;#SvgjsMask1004&quot;)" fill="none"><rect width="1440" height="560" x="0" y="0" fill="rgba(6, 24, 43, 1)"></rect><path d="M-55.92 376.44L-55.92 376.44" stroke="#132e65" stroke-width="1.5"></path><path d="M-55.92 376.44L107.23 392.83" stroke="#132e65" stroke-width="1.5"></path><path d="M-55.92 376.44L-108.82 533.66" stroke="#132e65" stroke-width="1.5"></path><path d="M-108.82 533.66L-108.82 533.66" stroke="#132e65" stroke-width="1.5"></path><path d="M-108.82 533.66L65.93 538.22" stroke="#132e65" stroke-width="1.5"></path><path d="M-108.82 533.66L75.59 705.79" stroke="#132e65" stroke-width="1.5"></path><path d="M107.23 392.83L107.23 392.83" stroke="#132e65" stroke-width="1.5"></path><path d="M107.23 392.83L236.53 349.33" stroke="#132e65" stroke-width="1.5"></path><path d="M107.23 392.83L65.93 538.22" stroke="#132e65" stroke-width="1.5"></path><path d="M65.93 538.22L65.93 538.22" stroke="#132e65" stroke-width="1.5"></path><path d="M65.93 538.22L200.52 523.41" stroke="#132e65" stroke-width="1.5"></path><path d="M65.93 538.22L75.59 705.79" stroke="#132e65" stroke-width="1.5"></path><path d="M65.93 538.22L216.06 672.72" stroke="#132e65" stroke-width="1.5"></path><path d="M75.59 705.79L75.59 705.79" stroke="#132e65" stroke-width="1.5"></path><path d="M75.59 705.79L216.06 672.72" stroke="#132e65" stroke-width="1.5"></path><path d="M75.59 705.79L200.52 523.41" stroke="#132e65" stroke-width="1.5"></path><path d="M236.53 349.33L236.53 349.33" stroke="#132e65" stroke-width="1.5"></path><path d="M236.53 349.33L386.95 386.9" stroke="#132e65" stroke-width="1.5"></path><path d="M236.53 349.33L200.52 523.41" stroke="#132e65" stroke-width="1.5"></path><path d="M236.53 349.33L368.4 519.84" stroke="#132e65" stroke-width="1.5"></path><path d="M200.52 523.41L200.52 523.41" stroke="#132e65" stroke-width="1.5"></path><path d="M200.52 523.41L216.06 672.72" stroke="#132e65" stroke-width="1.5"></path><path d="M200.52 523.41L107.23 392.83" stroke="#132e65" stroke-width="1.5"></path><path d="M200.52 523.41L368.4 519.84" stroke="#132e65" stroke-width="1.5"></path><path d="M216.06 672.72L216.06 672.72" stroke="#132e65" stroke-width="1.5"></path><path d="M216.06 672.72L401.04 652.94" stroke="#132e65" stroke-width="1.5"></path><path d="M216.06 672.72L368.4 519.84" stroke="#132e65" stroke-width="1.5"></path><path d="M216.06 672.72L495.23 672.38" stroke="#132e65" stroke-width="1.5"></path><path d="M386.95 386.9L386.95 386.9" stroke="#132e65" stroke-width="1.5"></path><path d="M386.95 386.9L368.4 519.84" stroke="#132e65" stroke-width="1.5"></path><path d="M386.95 386.9L528.48 376.22" stroke="#132e65" stroke-width="1.5"></path><path d="M386.95 386.9L540.25 518.99" stroke="#132e65" stroke-width="1.5"></path><path d="M386.95 386.9L200.52 523.41" stroke="#132e65" stroke-width="1.5"></path><path d="M368.4 519.84L368.4 519.84" stroke="#132e65" stroke-width="1.5"></path><path d="M368.4 519.84L401.04 652.94" stroke="#132e65" stroke-width="1.5"></path><path d="M401.04 652.94L401.04 652.94" stroke="#132e65" stroke-width="1.5"></path><path d="M401.04 652.94L495.23 672.38" stroke="#132e65" stroke-width="1.5"></path><path d="M401.04 652.94L540.25 518.99" stroke="#132e65" stroke-width="1.5"></path><path d="M401.04 652.94L200.52 523.41" stroke="#132e65" stroke-width="1.5"></path><path d="M401.04 652.94L386.95 386.9" stroke="#132e65" stroke-width="1.5"></path><path d="M528.48 376.22L528.48 376.22" stroke="#132e65" stroke-width="1.5"></path><path d="M528.48 376.22L540.25 518.99" stroke="#132e65" stroke-width="1.5"></path><path d="M528.48 376.22L672.71 402" stroke="#132e65" stroke-width="1.5"></path><path d="M540.25 518.99L540.25 518.99" stroke="#132e65" stroke-width="1.5"></path><path d="M540.25 518.99L680.03 497.72" stroke="#132e65" stroke-width="1.5"></path><path d="M540.25 518.99L495.23 672.38" stroke="#132e65" stroke-width="1.5"></path><path d="M540.25 518.99L368.4 519.84" stroke="#132e65" stroke-width="1.5"></path><path d="M540.25 518.99L672.71 402" stroke="#132e65" stroke-width="1.5"></path><path d="M495.23 672.38L495.23 672.38" stroke="#132e65" stroke-width="1.5"></path><path d="M495.23 672.38L679.74 679.92" stroke="#132e65" stroke-width="1.5"></path><path d="M495.23 672.38L368.4 519.84" stroke="#132e65" stroke-width="1.5"></path><path d="M639.97 251.93L639.97 251.93" stroke="#132e65" stroke-width="1.5"></path><path d="M639.97 251.93L672.71 402" stroke="#132e65" stroke-width="1.5"></path><path d="M639.97 251.93L528.48 376.22" stroke="#132e65" stroke-width="1.5"></path><path d="M639.97 251.93L831.24 256.96" stroke="#132e65" stroke-width="1.5"></path><path d="M639.97 251.93L834.91 382.83" stroke="#132e65" stroke-width="1.5"></path><path d="M672.71 402L672.71 402" stroke="#132e65" stroke-width="1.5"></path><path d="M672.71 402L680.03 497.72" stroke="#132e65" stroke-width="1.5"></path><path d="M680.03 497.72L680.03 497.72" stroke="#132e65" stroke-width="1.5"></path><path d="M680.03 497.72L820.99 539.79" stroke="#132e65" stroke-width="1.5"></path><path d="M680.03 497.72L679.74 679.92" stroke="#132e65" stroke-width="1.5"></path><path d="M680.03 497.72L834.91 382.83" stroke="#132e65" stroke-width="1.5"></path><path d="M679.74 679.92L679.74 679.92" stroke="#132e65" stroke-width="1.5"></path><path d="M679.74 679.92L798.06 663.89" stroke="#132e65" stroke-width="1.5"></path><path d="M831.24 256.96L831.24 256.96" stroke="#132e65" stroke-width="1.5"></path><path d="M831.24 256.96L834.91 382.83" stroke="#132e65" stroke-width="1.5"></path><path d="M831.24 256.96L982.46 209.19" stroke="#132e65" stroke-width="1.5"></path><path d="M834.91 382.83L834.91 382.83" stroke="#132e65" stroke-width="1.5"></path><path d="M834.91 382.83L820.99 539.79" stroke="#132e65" stroke-width="1.5"></path><path d="M834.91 382.83L672.71 402" stroke="#132e65" stroke-width="1.5"></path><path d="M834.91 382.83L1007.73 379.92" stroke="#132e65" stroke-width="1.5"></path><path d="M820.99 539.79L820.99 539.79" stroke="#132e65" stroke-width="1.5"></path><path d="M820.99 539.79L798.06 663.89" stroke="#132e65" stroke-width="1.5"></path><path d="M798.06 663.89L798.06 663.89" stroke="#132e65" stroke-width="1.5"></path><path d="M798.06 663.89L680.03 497.72" stroke="#132e65" stroke-width="1.5"></path><path d="M798.06 663.89L1003.94 707.47" stroke="#132e65" stroke-width="1.5"></path><path d="M965.76 -104.19L965.76 -104.19" stroke="#132e65" stroke-width="1.5"></path><path d="M965.76 -104.19L956.86 90.64" stroke="#132e65" stroke-width="1.5"></path><path d="M965.76 -104.19L1157.12 -43.42" stroke="#132e65" stroke-width="1.5"></path><path d="M965.76 -104.19L982.46 209.19" stroke="#132e65" stroke-width="1.5"></path><path d="M965.76 -104.19L1279.21 40.53" stroke="#132e65" stroke-width="1.5"></path><path d="M956.86 90.64L956.86 90.64" stroke="#132e65" stroke-width="1.5"></path><path d="M956.86 90.64L982.46 209.19" stroke="#132e65" stroke-width="1.5"></path><path d="M956.86 90.64L831.24 256.96" stroke="#132e65" stroke-width="1.5"></path><path d="M956.86 90.64L1157.12 -43.42" stroke="#132e65" stroke-width="1.5"></path><path d="M956.86 90.64L1007.73 379.92" stroke="#132e65" stroke-width="1.5"></path><path d="M956.86 90.64L834.91 382.83" stroke="#132e65" stroke-width="1.5"></path><path d="M982.46 209.19L982.46 209.19" stroke="#132e65" stroke-width="1.5"></path><path d="M982.46 209.19L1007.73 379.92" stroke="#132e65" stroke-width="1.5"></path><path d="M1007.73 379.92L1007.73 379.92" stroke="#132e65" stroke-width="1.5"></path><path d="M1007.73 379.92L1141.05 404.65" stroke="#132e65" stroke-width="1.5"></path><path d="M1007.73 379.92L981.7 554.69" stroke="#132e65" stroke-width="1.5"></path><path d="M981.7 554.69L981.7 554.69" stroke="#132e65" stroke-width="1.5"></path><path d="M981.7 554.69L1003.94 707.47" stroke="#132e65" stroke-width="1.5"></path><path d="M981.7 554.69L820.99 539.79" stroke="#132e65" stroke-width="1.5"></path><path d="M981.7 554.69L1145.37 520.82" stroke="#132e65" stroke-width="1.5"></path><path d="M981.7 554.69L1161.65 665.88" stroke="#132e65" stroke-width="1.5"></path><path d="M981.7 554.69L798.06 663.89" stroke="#132e65" stroke-width="1.5"></path><path d="M1003.94 707.47L1003.94 707.47" stroke="#132e65" stroke-width="1.5"></path><path d="M1003.94 707.47L1161.65 665.88" stroke="#132e65" stroke-width="1.5"></path><path d="M1003.94 707.47L1145.37 520.82" stroke="#132e65" stroke-width="1.5"></path><path d="M1003.94 707.47L820.99 539.79" stroke="#132e65" stroke-width="1.5"></path><path d="M1157.12 -43.42L1157.12 -43.42" stroke="#132e65" stroke-width="1.5"></path><path d="M1157.12 -43.42L1279.21 40.53" stroke="#132e65" stroke-width="1.5"></path><path d="M1157.12 -43.42L1416.69 -85.51" stroke="#132e65" stroke-width="1.5"></path><path d="M1141.05 404.65L1141.05 404.65" stroke="#132e65" stroke-width="1.5"></path><path d="M1141.05 404.65L1145.37 520.82" stroke="#132e65" stroke-width="1.5"></path><path d="M1141.05 404.65L1289.01 375.83" stroke="#132e65" stroke-width="1.5"></path><path d="M1141.05 404.65L1258.89 503.06" stroke="#132e65" stroke-width="1.5"></path><path d="M1141.05 404.65L981.7 554.69" stroke="#132e65" stroke-width="1.5"></path><path d="M1141.05 404.65L1272.63 204.14" stroke="#132e65" stroke-width="1.5"></path><path d="M1145.37 520.82L1145.37 520.82" stroke="#132e65" stroke-width="1.5"></path><path d="M1145.37 520.82L1258.89 503.06" stroke="#132e65" stroke-width="1.5"></path><path d="M1161.65 665.88L1161.65 665.88" stroke="#132e65" stroke-width="1.5"></path><path d="M1161.65 665.88L1266.24 652.2" stroke="#132e65" stroke-width="1.5"></path><path d="M1161.65 665.88L1145.37 520.82" stroke="#132e65" stroke-width="1.5"></path><path d="M1279.21 40.53L1279.21 40.53" stroke="#132e65" stroke-width="1.5"></path><path d="M1279.21 40.53L1432.79 54.27" stroke="#132e65" stroke-width="1.5"></path><path d="M1279.21 40.53L1272.63 204.14" stroke="#132e65" stroke-width="1.5"></path><path d="M1279.21 40.53L1416.69 -85.51" stroke="#132e65" stroke-width="1.5"></path><path d="M1279.21 40.53L1412.97 222.97" stroke="#132e65" stroke-width="1.5"></path><path d="M1279.21 40.53L1573.19 61.44" stroke="#132e65" stroke-width="1.5"></path><path d="M1272.63 204.14L1272.63 204.14" stroke="#132e65" stroke-width="1.5"></path><path d="M1272.63 204.14L1412.97 222.97" stroke="#132e65" stroke-width="1.5"></path><path d="M1272.63 204.14L1289.01 375.83" stroke="#132e65" stroke-width="1.5"></path><path d="M1272.63 204.14L1432.79 54.27" stroke="#132e65" stroke-width="1.5"></path><path d="M1289.01 375.83L1289.01 375.83" stroke="#132e65" stroke-width="1.5"></path><path d="M1289.01 375.83L1258.89 503.06" stroke="#132e65" stroke-width="1.5"></path><path d="M1289.01 375.83L1457.02 403.41" stroke="#132e65" stroke-width="1.5"></path><path d="M1289.01 375.83L1437.32 492.91" stroke="#132e65" stroke-width="1.5"></path><path d="M1258.89 503.06L1258.89 503.06" stroke="#132e65" stroke-width="1.5"></path><path d="M1266.24 652.2L1266.24 652.2" stroke="#132e65" stroke-width="1.5"></path><path d="M1266.24 652.2L1409.84 667.33" stroke="#132e65" stroke-width="1.5"></path><path d="M1416.69 -85.51L1416.69 -85.51" stroke="#132e65" stroke-width="1.5"></path><path d="M1416.69 -85.51L1432.79 54.27" stroke="#132e65" stroke-width="1.5"></path><path d="M1416.69 -85.51L1566.14 -68.13" stroke="#132e65" stroke-width="1.5"></path><path d="M1416.69 -85.51L1573.19 61.44" stroke="#132e65" stroke-width="1.5"></path><path d="M1416.69 -85.51L1412.97 222.97" stroke="#132e65" stroke-width="1.5"></path><path d="M1432.79 54.27L1432.79 54.27" stroke="#132e65" stroke-width="1.5"></path><path d="M1432.79 54.27L1573.19 61.44" stroke="#132e65" stroke-width="1.5"></path><path d="M1412.97 222.97L1412.97 222.97" stroke="#132e65" stroke-width="1.5"></path><path d="M1412.97 222.97L1432.79 54.27" stroke="#132e65" stroke-width="1.5"></path><path d="M1457.02 403.41L1457.02 403.41" stroke="#132e65" stroke-width="1.5"></path><path d="M1457.02 403.41L1437.32 492.91" stroke="#132e65" stroke-width="1.5"></path><path d="M1437.32 492.91L1437.32 492.91" stroke="#132e65" stroke-width="1.5"></path><path d="M1437.32 492.91L1545.34 492.76" stroke="#132e65" stroke-width="1.5"></path><path d="M1409.84 667.33L1409.84 667.33" stroke="#132e65" stroke-width="1.5"></path><path d="M1566.14 -68.13L1566.14 -68.13" stroke="#132e65" stroke-width="1.5"></path><path d="M1566.14 -68.13L1573.19 61.44" stroke="#132e65" stroke-width="1.5"></path><path d="M1566.14 -68.13L1432.79 54.27" stroke="#132e65" stroke-width="1.5"></path><path d="M1573.19 61.44L1573.19 61.44" stroke="#132e65" stroke-width="1.5"></path><path d="M1573.19 61.44L1605.83 259.67" stroke="#132e65" stroke-width="1.5"></path><path d="M1573.19 61.44L1412.97 222.97" stroke="#132e65" stroke-width="1.5"></path><path d="M1605.83 259.67L1605.83 259.67" stroke="#132e65" stroke-width="1.5"></path><path d="M1605.83 259.67L1554.15 361.14" stroke="#132e65" stroke-width="1.5"></path><path d="M1605.83 259.67L1412.97 222.97" stroke="#132e65" stroke-width="1.5"></path><path d="M1605.83 259.67L1457.02 403.41" stroke="#132e65" stroke-width="1.5"></path><path d="M1554.15 361.14L1554.15 361.14" stroke="#132e65" stroke-width="1.5"></path><path d="M1554.15 361.14L1457.02 403.41" stroke="#132e65" stroke-width="1.5"></path><path d="M1554.15 361.14L1545.34 492.76" stroke="#132e65" stroke-width="1.5"></path><path d="M1545.34 492.76L1545.34 492.76" stroke="#132e65" stroke-width="1.5"></path><path d="M1545.34 492.76L1457.02 403.41" stroke="#132e65" stroke-width="1.5"></path><path d="M1545.34 492.76L1409.84 667.33" stroke="#132e65" stroke-width="1.5"></path><path d="M1545.34 492.76L1605.83 259.67" stroke="#132e65" stroke-width="1.5"></path><path d="M1545.34 492.76L1289.01 375.83" stroke="#132e65" stroke-width="1.5"></path><circle r="5" cx="-55.92" cy="376.44" fill="#132e65"></circle><circle r="5" cx="-108.82" cy="533.66" fill="#132e65"></circle><circle r="5" cx="107.23" cy="392.83" fill="#132e65"></circle><circle r="5" cx="65.93" cy="538.22" fill="#132e65"></circle><circle r="5" cx="75.59" cy="705.79" fill="#132e65"></circle><circle r="5" cx="236.53" cy="349.33" fill="#132e65"></circle><circle r="5" cx="200.52" cy="523.41" fill="#132e65"></circle><circle r="5" cx="216.06" cy="672.72" fill="#132e65"></circle><circle r="5" cx="386.95" cy="386.9" fill="#132e65"></circle><circle r="5" cx="368.4" cy="519.84" fill="#132e65"></circle><circle r="5" cx="401.04" cy="652.94" fill="#132e65"></circle><circle r="5" cx="528.48" cy="376.22" fill="#132e65"></circle><circle r="5" cx="540.25" cy="518.99" fill="#132e65"></circle><circle r="5" cx="495.23" cy="672.38" fill="#132e65"></circle><circle r="5" cx="639.97" cy="251.93" fill="#132e65"></circle><circle r="5" cx="672.71" cy="402" fill="#132e65"></circle><circle r="5" cx="680.03" cy="497.72" fill="#132e65"></circle><circle r="5" cx="679.74" cy="679.92" fill="#132e65"></circle><circle r="5" cx="831.24" cy="256.96" fill="#132e65"></circle><circle r="5" cx="834.91" cy="382.83" fill="#132e65"></circle><circle r="5" cx="820.99" cy="539.79" fill="#132e65"></circle><circle r="5" cx="798.06" cy="663.89" fill="#132e65"></circle><circle r="5" cx="965.76" cy="-104.19" fill="#132e65"></circle><circle r="5" cx="956.86" cy="90.64" fill="#132e65"></circle><circle r="5" cx="982.46" cy="209.19" fill="#132e65"></circle><circle r="5" cx="1007.73" cy="379.92" fill="#132e65"></circle><circle r="5" cx="981.7" cy="554.69" fill="#132e65"></circle><circle r="5" cx="1003.94" cy="707.47" fill="#132e65"></circle><circle r="5" cx="1157.12" cy="-43.42" fill="#132e65"></circle><circle r="5" cx="1141.05" cy="404.65" fill="#132e65"></circle><circle r="5" cx="1145.37" cy="520.82" fill="#132e65"></circle><circle r="5" cx="1161.65" cy="665.88" fill="#132e65"></circle><circle r="5" cx="1279.21" cy="40.53" fill="#132e65"></circle><circle r="5" cx="1272.63" cy="204.14" fill="#132e65"></circle><circle r="5" cx="1289.01" cy="375.83" fill="#132e65"></circle><circle r="5" cx="1258.89" cy="503.06" fill="#132e65"></circle><circle r="5" cx="1266.24" cy="652.2" fill="#132e65"></circle><circle r="5" cx="1416.69" cy="-85.51" fill="#132e65"></circle><circle r="5" cx="1432.79" cy="54.27" fill="#132e65"></circle><circle r="5" cx="1412.97" cy="222.97" fill="#132e65"></circle><circle r="5" cx="1457.02" cy="403.41" fill="#132e65"></circle><circle r="5" cx="1437.32" cy="492.91" fill="#132e65"></circle><circle r="5" cx="1409.84" cy="667.33" fill="#132e65"></circle><circle r="5" cx="1566.14" cy="-68.13" fill="#132e65"></circle><circle r="5" cx="1573.19" cy="61.44" fill="#132e65"></circle><circle r="5" cx="1605.83" cy="259.67" fill="#132e65"></circle><circle r="5" cx="1554.15" cy="361.14" fill="#132e65"></circle><circle r="5" cx="1545.34" cy="492.76" fill="#132e65"></circle><path d="M109.75 532.24L109.75 532.24" stroke="hsl(47.39999999999998, 98.4%, 64.2%)" stroke-width="1.5"></path><path d="M109.75 532.24L212.45 555.63" stroke="hsl(47.39999999999998, 98.4%, 64.2%)" stroke-width="1.5"></path><path d="M109.75 532.24L69.74 691.94" stroke="hsl(47.39999999999998, 98.4%, 64.2%)" stroke-width="1.5"></path><path d="M507.19 692.4L507.19 692.4" stroke="hsl(47.39999999999998, 98.4%, 64.2%)" stroke-width="1.5"></path><path d="M507.19 692.4L407.84 656.91" stroke="hsl(47.39999999999998, 98.4%, 64.2%)" stroke-width="1.5"></path><path d="M507.19 692.4L545.27 558.06" stroke="hsl(47.39999999999998, 98.4%, 64.2%)" stroke-width="1.5"></path><path d="M507.19 692.4L657.08 656.23" stroke="hsl(47.39999999999998, 98.4%, 64.2%)" stroke-width="1.5"></path><path d="M507.19 692.4L379.22 505.15" stroke="hsl(47.39999999999998, 98.4%, 64.2%)" stroke-width="1.5"></path><path d="M507.19 692.4L673.06 528.79" stroke="hsl(47.39999999999998, 98.4%, 64.2%)" stroke-width="1.5"></path><path d="M507.19 692.4L216.59 681.85" stroke="hsl(47.39999999999998, 98.4%, 64.2%)" stroke-width="1.5"></path><path d="M657.08 656.23L657.08 656.23" stroke="hsl(47.39999999999998, 98.4%, 64.2%)" stroke-width="1.5"></path><path d="M657.08 656.23L673.06 528.79" stroke="hsl(47.39999999999998, 98.4%, 64.2%)" stroke-width="1.5"></path><path d="M657.08 656.23L545.27 558.06" stroke="hsl(47.39999999999998, 98.4%, 64.2%)" stroke-width="1.5"></path><path d="M993.94 499.03L993.94 499.03" stroke="hsl(47.39999999999998, 98.4%, 64.2%)" stroke-width="1.5"></path><path d="M993.94 499.03L1140.05 508.16" stroke="hsl(47.39999999999998, 98.4%, 64.2%)" stroke-width="1.5"></path><path d="M993.94 499.03L1095.43 378.15" stroke="hsl(47.39999999999998, 98.4%, 64.2%)" stroke-width="1.5"></path><path d="M993.94 499.03L984.55 705.78" stroke="hsl(47.39999999999998, 98.4%, 64.2%)" stroke-width="1.5"></path><path d="M993.94 499.03L838.33 358.69" stroke="hsl(47.39999999999998, 98.4%, 64.2%)" stroke-width="1.5"></path><path d="M1103.65 708.37L1103.65 708.37" stroke="hsl(47.39999999999998, 98.4%, 64.2%)" stroke-width="1.5"></path><path d="M1103.65 708.37L984.55 705.78" stroke="hsl(47.39999999999998, 98.4%, 64.2%)" stroke-width="1.5"></path><path d="M1103.65 708.37L1301.93 686.72" stroke="hsl(47.39999999999998, 98.4%, 64.2%)" stroke-width="1.5"></path><path d="M1103.65 708.37L1140.05 508.16" stroke="hsl(47.39999999999998, 98.4%, 64.2%)" stroke-width="1.5"></path><path d="M1103.65 708.37L993.94 499.03" stroke="hsl(47.39999999999998, 98.4%, 64.2%)" stroke-width="1.5"></path><path d="M1271.42 233.3L1271.42 233.3" stroke="hsl(47.39999999999998, 98.4%, 64.2%)" stroke-width="1.5"></path><path d="M1271.42 233.3L1432.22 232.42" stroke="hsl(47.39999999999998, 98.4%, 64.2%)" stroke-width="1.5"></path><path d="M1271.42 233.3L1259.71 404.59" stroke="hsl(47.39999999999998, 98.4%, 64.2%)" stroke-width="1.5"></path><path d="M1271.42 233.3L1100.11 209.06" stroke="hsl(47.39999999999998, 98.4%, 64.2%)" stroke-width="1.5"></path><path d="M1271.42 233.3L1410.76 78.91" stroke="hsl(47.39999999999998, 98.4%, 64.2%)" stroke-width="1.5"></path><path d="M1271.42 233.3L1095.43 378.15" stroke="hsl(47.39999999999998, 98.4%, 64.2%)" stroke-width="1.5"></path><path d="M1301.93 686.72L1301.93 686.72" stroke="hsl(47.39999999999998, 98.4%, 64.2%)" stroke-width="1.5"></path><path d="M1301.93 686.72L1456.34 675.99" stroke="hsl(47.39999999999998, 98.4%, 64.2%)" stroke-width="1.5"></path><path d="M1301.93 686.72L1414.6 560.51" stroke="hsl(47.39999999999998, 98.4%, 64.2%)" stroke-width="1.5"></path><path d="M1301.93 686.72L1295.43 494.39" stroke="hsl(47.39999999999998, 98.4%, 64.2%)" stroke-width="1.5"></path><path d="M-69.39 550.69L-69.39 550.69" stroke="hsl(47.39999999999998, 98.4%, 64.2%)" stroke-width="1.5"></path><path d="M-69.39 550.69L-44.44 661.74" stroke="hsl(47.39999999999998, 98.4%, 64.2%)" stroke-width="1.5"></path><path d="M-69.39 550.69L109.75 532.24" stroke="hsl(47.39999999999998, 98.4%, 64.2%)" stroke-width="1.5"></path><path d="M-69.39 550.69L69.74 691.94" stroke="hsl(47.39999999999998, 98.4%, 64.2%)" stroke-width="1.5"></path><path d="M-69.39 550.69L212.45 555.63" stroke="hsl(47.39999999999998, 98.4%, 64.2%)" stroke-width="1.5"></path><path d="M-44.44 661.74L-44.44 661.74" stroke="hsl(47.39999999999998, 98.4%, 64.2%)" stroke-width="1.5"></path><path d="M-44.44 661.74L69.74 691.94" stroke="hsl(47.39999999999998, 98.4%, 64.2%)" stroke-width="1.5"></path><path d="M-44.44 661.74L109.75 532.24" stroke="hsl(47.39999999999998, 98.4%, 64.2%)" stroke-width="1.5"></path><path d="M-44.44 661.74L216.59 681.85" stroke="hsl(47.39999999999998, 98.4%, 64.2%)" stroke-width="1.5"></path><path d="M-44.44 661.74L212.45 555.63" stroke="hsl(47.39999999999998, 98.4%, 64.2%)" stroke-width="1.5"></path><path d="M-44.44 661.74L379.22 505.15" stroke="hsl(47.39999999999998, 98.4%, 64.2%)" stroke-width="1.5"></path><path d="M69.74 691.94L69.74 691.94" stroke="hsl(47.39999999999998, 98.4%, 64.2%)" stroke-width="1.5"></path><path d="M69.74 691.94L216.59 681.85" stroke="hsl(47.39999999999998, 98.4%, 64.2%)" stroke-width="1.5"></path><path d="M69.74 691.94L212.45 555.63" stroke="hsl(47.39999999999998, 98.4%, 64.2%)" stroke-width="1.5"></path><path d="M212.45 555.63L212.45 555.63" stroke="hsl(47.39999999999998, 98.4%, 64.2%)" stroke-width="1.5"></path><path d="M212.45 555.63L216.59 681.85" stroke="hsl(47.39999999999998, 98.4%, 64.2%)" stroke-width="1.5"></path><path d="M212.45 555.63L379.22 505.15" stroke="hsl(47.39999999999998, 98.4%, 64.2%)" stroke-width="1.5"></path><path d="M212.45 555.63L407.84 656.91" stroke="hsl(47.39999999999998, 98.4%, 64.2%)" stroke-width="1.5"></path><path d="M216.59 681.85L216.59 681.85" stroke="hsl(47.39999999999998, 98.4%, 64.2%)" stroke-width="1.5"></path><path d="M379.22 505.15L379.22 505.15" stroke="hsl(47.39999999999998, 98.4%, 64.2%)" stroke-width="1.5"></path><path d="M379.22 505.15L407.84 656.91" stroke="hsl(47.39999999999998, 98.4%, 64.2%)" stroke-width="1.5"></path><path d="M379.22 505.15L545.27 558.06" stroke="hsl(47.39999999999998, 98.4%, 64.2%)" stroke-width="1.5"></path><path d="M379.22 505.15L216.59 681.85" stroke="hsl(47.39999999999998, 98.4%, 64.2%)" stroke-width="1.5"></path><path d="M379.22 505.15L109.75 532.24" stroke="hsl(47.39999999999998, 98.4%, 64.2%)" stroke-width="1.5"></path><path d="M407.84 656.91L407.84 656.91" stroke="hsl(47.39999999999998, 98.4%, 64.2%)" stroke-width="1.5"></path><path d="M545.27 558.06L545.27 558.06" stroke="hsl(47.39999999999998, 98.4%, 64.2%)" stroke-width="1.5"></path><path d="M545.27 558.06L673.06 528.79" stroke="hsl(47.39999999999998, 98.4%, 64.2%)" stroke-width="1.5"></path><path d="M545.27 558.06L407.84 656.91" stroke="hsl(47.39999999999998, 98.4%, 64.2%)" stroke-width="1.5"></path><path d="M663.47 373.37L663.47 373.37" stroke="hsl(47.39999999999998, 98.4%, 64.2%)" stroke-width="1.5"></path><path d="M663.47 373.37L673.06 528.79" stroke="hsl(47.39999999999998, 98.4%, 64.2%)" stroke-width="1.5"></path><path d="M663.47 373.37L838.33 358.69" stroke="hsl(47.39999999999998, 98.4%, 64.2%)" stroke-width="1.5"></path><path d="M663.47 373.37L545.27 558.06" stroke="hsl(47.39999999999998, 98.4%, 64.2%)" stroke-width="1.5"></path><path d="M663.47 373.37L788.87 554.82" stroke="hsl(47.39999999999998, 98.4%, 64.2%)" stroke-width="1.5"></path><path d="M673.06 528.79L673.06 528.79" stroke="hsl(47.39999999999998, 98.4%, 64.2%)" stroke-width="1.5"></path><path d="M673.06 528.79L788.87 554.82" stroke="hsl(47.39999999999998, 98.4%, 64.2%)" stroke-width="1.5"></path><path d="M838.33 358.69L838.33 358.69" stroke="hsl(47.39999999999998, 98.4%, 64.2%)" stroke-width="1.5"></path><path d="M838.33 358.69L998.9 238.83" stroke="hsl(47.39999999999998, 98.4%, 64.2%)" stroke-width="1.5"></path><path d="M838.33 358.69L788.87 554.82" stroke="hsl(47.39999999999998, 98.4%, 64.2%)" stroke-width="1.5"></path><path d="M788.87 554.82L788.87 554.82" stroke="hsl(47.39999999999998, 98.4%, 64.2%)" stroke-width="1.5"></path><path d="M788.87 554.82L818.34 649.47" stroke="hsl(47.39999999999998, 98.4%, 64.2%)" stroke-width="1.5"></path><path d="M788.87 554.82L657.08 656.23" stroke="hsl(47.39999999999998, 98.4%, 64.2%)" stroke-width="1.5"></path><path d="M818.34 649.47L818.34 649.47" stroke="hsl(47.39999999999998, 98.4%, 64.2%)" stroke-width="1.5"></path><path d="M818.34 649.47L657.08 656.23" stroke="hsl(47.39999999999998, 98.4%, 64.2%)" stroke-width="1.5"></path><path d="M818.34 649.47L984.55 705.78" stroke="hsl(47.39999999999998, 98.4%, 64.2%)" stroke-width="1.5"></path><path d="M818.34 649.47L673.06 528.79" stroke="hsl(47.39999999999998, 98.4%, 64.2%)" stroke-width="1.5"></path><path d="M818.34 649.47L993.94 499.03" stroke="hsl(47.39999999999998, 98.4%, 64.2%)" stroke-width="1.5"></path><path d="M818.34 649.47L545.27 558.06" stroke="hsl(47.39999999999998, 98.4%, 64.2%)" stroke-width="1.5"></path><path d="M998.9 238.83L998.9 238.83" stroke="hsl(47.39999999999998, 98.4%, 64.2%)" stroke-width="1.5"></path><path d="M998.9 238.83L1100.11 209.06" stroke="hsl(47.39999999999998, 98.4%, 64.2%)" stroke-width="1.5"></path><path d="M998.9 238.83L1095.43 378.15" stroke="hsl(47.39999999999998, 98.4%, 64.2%)" stroke-width="1.5"></path><path d="M998.9 238.83L993.94 499.03" stroke="hsl(47.39999999999998, 98.4%, 64.2%)" stroke-width="1.5"></path><path d="M984.55 705.78L984.55 705.78" stroke="hsl(47.39999999999998, 98.4%, 64.2%)" stroke-width="1.5"></path><path d="M984.55 705.78L788.87 554.82" stroke="hsl(47.39999999999998, 98.4%, 64.2%)" stroke-width="1.5"></path><path d="M984.55 705.78L1140.05 508.16" stroke="hsl(47.39999999999998, 98.4%, 64.2%)" stroke-width="1.5"></path><path d="M984.55 705.78L1301.93 686.72" stroke="hsl(47.39999999999998, 98.4%, 64.2%)" stroke-width="1.5"></path><path d="M1100.11 209.06L1100.11 209.06" stroke="hsl(47.39999999999998, 98.4%, 64.2%)" stroke-width="1.5"></path><path d="M1100.11 209.06L1095.43 378.15" stroke="hsl(47.39999999999998, 98.4%, 64.2%)" stroke-width="1.5"></path><path d="M1100.11 209.06L1259.71 404.59" stroke="hsl(47.39999999999998, 98.4%, 64.2%)" stroke-width="1.5"></path><path d="M1100.11 209.06L838.33 358.69" stroke="hsl(47.39999999999998, 98.4%, 64.2%)" stroke-width="1.5"></path><path d="M1095.43 378.15L1095.43 378.15" stroke="hsl(47.39999999999998, 98.4%, 64.2%)" stroke-width="1.5"></path><path d="M1095.43 378.15L1140.05 508.16" stroke="hsl(47.39999999999998, 98.4%, 64.2%)" stroke-width="1.5"></path><path d="M1095.43 378.15L1259.71 404.59" stroke="hsl(47.39999999999998, 98.4%, 64.2%)" stroke-width="1.5"></path><path d="M1140.05 508.16L1140.05 508.16" stroke="hsl(47.39999999999998, 98.4%, 64.2%)" stroke-width="1.5"></path><path d="M1140.05 508.16L1295.43 494.39" stroke="hsl(47.39999999999998, 98.4%, 64.2%)" stroke-width="1.5"></path><path d="M1140.05 508.16L1259.71 404.59" stroke="hsl(47.39999999999998, 98.4%, 64.2%)" stroke-width="1.5"></path><path d="M1140.05 508.16L1301.93 686.72" stroke="hsl(47.39999999999998, 98.4%, 64.2%)" stroke-width="1.5"></path><path d="M1256.98 -85.67L1256.98 -85.67" stroke="hsl(47.39999999999998, 98.4%, 64.2%)" stroke-width="1.5"></path><path d="M1256.98 -85.67L1441.81 -69.59" stroke="hsl(47.39999999999998, 98.4%, 64.2%)" stroke-width="1.5"></path><path d="M1256.98 -85.67L1410.76 78.91" stroke="hsl(47.39999999999998, 98.4%, 64.2%)" stroke-width="1.5"></path><path d="M1256.98 -85.67L1554.97 -97.82" stroke="hsl(47.39999999999998, 98.4%, 64.2%)" stroke-width="1.5"></path><path d="M1259.71 404.59L1259.71 404.59" stroke="hsl(47.39999999999998, 98.4%, 64.2%)" stroke-width="1.5"></path><path d="M1259.71 404.59L1295.43 494.39" stroke="hsl(47.39999999999998, 98.4%, 64.2%)" stroke-width="1.5"></path><path d="M1295.43 494.39L1295.43 494.39" stroke="hsl(47.39999999999998, 98.4%, 64.2%)" stroke-width="1.5"></path><path d="M1295.43 494.39L1414.6 560.51" stroke="hsl(47.39999999999998, 98.4%, 64.2%)" stroke-width="1.5"></path><path d="M1441.81 -69.59L1441.81 -69.59" stroke="hsl(47.39999999999998, 98.4%, 64.2%)" stroke-width="1.5"></path><path d="M1441.81 -69.59L1554.97 -97.82" stroke="hsl(47.39999999999998, 98.4%, 64.2%)" stroke-width="1.5"></path><path d="M1441.81 -69.59L1410.76 78.91" stroke="hsl(47.39999999999998, 98.4%, 64.2%)" stroke-width="1.5"></path><path d="M1441.81 -69.59L1562.06 111.75" stroke="hsl(47.39999999999998, 98.4%, 64.2%)" stroke-width="1.5"></path><path d="M1441.81 -69.59L1432.22 232.42" stroke="hsl(47.39999999999998, 98.4%, 64.2%)" stroke-width="1.5"></path><path d="M1441.81 -69.59L1553.84 226.96" stroke="hsl(47.39999999999998, 98.4%, 64.2%)" stroke-width="1.5"></path><path d="M1410.76 78.91L1410.76 78.91" stroke="hsl(47.39999999999998, 98.4%, 64.2%)" stroke-width="1.5"></path><path d="M1410.76 78.91L1562.06 111.75" stroke="hsl(47.39999999999998, 98.4%, 64.2%)" stroke-width="1.5"></path><path d="M1410.76 78.91L1432.22 232.42" stroke="hsl(47.39999999999998, 98.4%, 64.2%)" stroke-width="1.5"></path><path d="M1410.76 78.91L1553.84 226.96" stroke="hsl(47.39999999999998, 98.4%, 64.2%)" stroke-width="1.5"></path><path d="M1432.22 232.42L1432.22 232.42" stroke="hsl(47.39999999999998, 98.4%, 64.2%)" stroke-width="1.5"></path><path d="M1432.22 232.42L1553.84 226.96" stroke="hsl(47.39999999999998, 98.4%, 64.2%)" stroke-width="1.5"></path><path d="M1432.22 232.42L1562.06 111.75" stroke="hsl(47.39999999999998, 98.4%, 64.2%)" stroke-width="1.5"></path><path d="M1432.22 232.42L1598.69 408.66" stroke="hsl(47.39999999999998, 98.4%, 64.2%)" stroke-width="1.5"></path><path d="M1414.6 560.51L1414.6 560.51" stroke="hsl(47.39999999999998, 98.4%, 64.2%)" stroke-width="1.5"></path><path d="M1414.6 560.51L1456.34 675.99" stroke="hsl(47.39999999999998, 98.4%, 64.2%)" stroke-width="1.5"></path><path d="M1456.34 675.99L1456.34 675.99" stroke="hsl(47.39999999999998, 98.4%, 64.2%)" stroke-width="1.5"></path><path d="M1554.97 -97.82L1554.97 -97.82" stroke="hsl(47.39999999999998, 98.4%, 64.2%)" stroke-width="1.5"></path><path d="M1554.97 -97.82L1562.06 111.75" stroke="hsl(47.39999999999998, 98.4%, 64.2%)" stroke-width="1.5"></path><path d="M1554.97 -97.82L1410.76 78.91" stroke="hsl(47.39999999999998, 98.4%, 64.2%)" stroke-width="1.5"></path><path d="M1554.97 -97.82L1553.84 226.96" stroke="hsl(47.39999999999998, 98.4%, 64.2%)" stroke-width="1.5"></path><path d="M1562.06 111.75L1562.06 111.75" stroke="hsl(47.39999999999998, 98.4%, 64.2%)" stroke-width="1.5"></path><path d="M1562.06 111.75L1553.84 226.96" stroke="hsl(47.39999999999998, 98.4%, 64.2%)" stroke-width="1.5"></path><path d="M1553.84 226.96L1553.84 226.96" stroke="hsl(47.39999999999998, 98.4%, 64.2%)" stroke-width="1.5"></path><path d="M1553.84 226.96L1598.69 408.66" stroke="hsl(47.39999999999998, 98.4%, 64.2%)" stroke-width="1.5"></path><path d="M1553.84 226.96L1271.42 233.3" stroke="hsl(47.39999999999998, 98.4%, 64.2%)" stroke-width="1.5"></path><path d="M1598.69 408.66L1598.69 408.66" stroke="hsl(47.39999999999998, 98.4%, 64.2%)" stroke-width="1.5"></path><path d="M1598.69 408.66L1558.19 532.26" stroke="hsl(47.39999999999998, 98.4%, 64.2%)" stroke-width="1.5"></path><path d="M1558.19 532.26L1558.19 532.26" stroke="hsl(47.39999999999998, 98.4%, 64.2%)" stroke-width="1.5"></path><path d="M1558.19 532.26L1591.37 667.84" stroke="hsl(47.39999999999998, 98.4%, 64.2%)" stroke-width="1.5"></path><path d="M1558.19 532.26L1414.6 560.51" stroke="hsl(47.39999999999998, 98.4%, 64.2%)" stroke-width="1.5"></path><path d="M1558.19 532.26L1456.34 675.99" stroke="hsl(47.39999999999998, 98.4%, 64.2%)" stroke-width="1.5"></path><path d="M1558.19 532.26L1295.43 494.39" stroke="hsl(47.39999999999998, 98.4%, 64.2%)" stroke-width="1.5"></path><path d="M1591.37 667.84L1591.37 667.84" stroke="hsl(47.39999999999998, 98.4%, 64.2%)" stroke-width="1.5"></path><path d="M1591.37 667.84L1456.34 675.99" stroke="hsl(47.39999999999998, 98.4%, 64.2%)" stroke-width="1.5"></path><path d="M1591.37 667.84L1414.6 560.51" stroke="hsl(47.39999999999998, 98.4%, 64.2%)" stroke-width="1.5"></path><path d="M1591.37 667.84L1598.69 408.66" stroke="hsl(47.39999999999998, 98.4%, 64.2%)" stroke-width="1.5"></path><path d="M1591.37 667.84L1301.93 686.72" stroke="hsl(47.39999999999998, 98.4%, 64.2%)" stroke-width="1.5"></path><circle r="25" cx="109.75" cy="532.24" fill="url(#SvgjsRadialGradient1005)"></circle><circle r="25" cx="507.19" cy="692.4" fill="url(#SvgjsRadialGradient1005)"></circle><circle r="25" cx="657.08" cy="656.23" fill="url(#SvgjsRadialGradient1005)"></circle><circle r="25" cx="993.94" cy="499.03" fill="url(#SvgjsRadialGradient1005)"></circle><circle r="25" cx="1103.65" cy="708.37" fill="url(#SvgjsRadialGradient1005)"></circle><circle r="25" cx="1271.42" cy="233.3" fill="url(#SvgjsRadialGradient1005)"></circle><circle r="25" cx="1301.93" cy="686.72" fill="url(#SvgjsRadialGradient1005)"></circle><circle r="5" cx="-69.39" cy="550.69" fill="#fde381"></circle><circle r="5" cx="-44.44" cy="661.74" fill="#fde381"></circle><circle r="5" cx="69.74" cy="691.94" fill="#fde381"></circle><circle r="5" cx="212.45" cy="555.63" fill="#fde381"></circle><circle r="5" cx="216.59" cy="681.85" fill="#fde381"></circle><circle r="5" cx="379.22" cy="505.15" fill="#fde381"></circle><circle r="5" cx="407.84" cy="656.91" fill="#fde381"></circle><circle r="5" cx="545.27" cy="558.06" fill="#fde381"></circle><circle r="5" cx="663.47" cy="373.37" fill="#fde381"></circle><circle r="5" cx="673.06" cy="528.79" fill="#fde381"></circle><circle r="5" cx="838.33" cy="358.69" fill="#fde381"></circle><circle r="5" cx="788.87" cy="554.82" fill="#fde381"></circle><circle r="5" cx="818.34" cy="649.47" fill="#fde381"></circle><circle r="5" cx="998.9" cy="238.83" fill="#fde381"></circle><circle r="5" cx="984.55" cy="705.78" fill="#fde381"></circle><circle r="5" cx="1100.11" cy="209.06" fill="#fde381"></circle><circle r="5" cx="1095.43" cy="378.15" fill="#fde381"></circle><circle r="5" cx="1140.05" cy="508.16" fill="#fde381"></circle><circle r="5" cx="1256.98" cy="-85.67" fill="#fde381"></circle><circle r="5" cx="1259.71" cy="404.59" fill="#fde381"></circle><circle r="5" cx="1295.43" cy="494.39" fill="#fde381"></circle><circle r="5" cx="1441.81" cy="-69.59" fill="#fde381"></circle><circle r="5" cx="1410.76" cy="78.91" fill="#fde381"></circle><circle r="5" cx="1432.22" cy="232.42" fill="#fde381"></circle><circle r="5" cx="1414.6" cy="560.51" fill="#fde381"></circle><circle r="5" cx="1456.34" cy="675.99" fill="#fde381"></circle><circle r="5" cx="1554.97" cy="-97.82" fill="#fde381"></circle><circle r="5" cx="1562.06" cy="111.75" fill="#fde381"></circle><circle r="5" cx="1553.84" cy="226.96" fill="#fde381"></circle><circle r="5" cx="1598.69" cy="408.66" fill="#fde381"></circle><circle r="5" cx="1558.19" cy="532.26" fill="#fde381"></circle><circle r="5" cx="1591.37" cy="667.84" fill="#fde381"></circle></g><defs><mask id="SvgjsMask1004"><rect width="1440" height="560" fill="#ffffff"></rect></mask><radialGradient id="SvgjsRadialGradient1005"><stop stop-color="#ffffff" offset="0.1"></stop><stop stop-color="rgba(250, 198, 2, 1)" offset="0.2"></stop><stop stop-color="rgba(250, 198, 2, 0)" offset="1"></stop></radialGradient></defs></svg>