<svg xmlns="http://www.w3.org/2000/svg" version="1.1" xmlns:xlink="http://www.w3.org/1999/xlink" xmlns:svgjs="http://svgjs.com/svgjs" width="1440" height="560" preserveAspectRatio="none" viewBox="0 0 1440 560"><g mask="url(&quot;#SvgjsMask1003&quot;)" fill="none"><path d="M -180.02567356351256,131 C -84.03,191.4 107.97,421.8 299.97432643648744,433 C 491.97,444.2 587.97,199.4 779.9743264364874,187 C 971.97,174.6 1067.97,366.4 1259.9743264364874,371 C 1451.97,375.6 1703.97,223 1739.9743264364874,210 C 1775.98,197 1499.99,286.8 1440,306" stroke="rgba(252, 233, 106, 1)" stroke-width="2"></path><path d="M -860.3897761894352,82 C -764.39,132.8 -572.39,320.2 -380.3897761894352,336 C -188.39,351.8 -92.39,166 99.61022381056478,161 C 291.61,156 387.61,303.4 579.6102238105648,311 C 771.61,318.6 887.53,205 1059.6102238105648,199 C 1231.69,193 1363.92,264.6 1440,281" stroke="rgba(252, 233, 106, 1)" stroke-width="2"></path><path d="M -171.12541144092103,160 C -75.13,202.2 116.87,374.4 308.874588559079,371 C 500.87,367.6 596.87,136.8 788.874588559079,143 C 980.87,149.2 1076.87,386 1268.874588559079,402 C 1460.87,418 1714.65,214 1748.874588559079,223 C 1783.1,232 1501.77,402.2 1440,447" stroke="rgba(252, 233, 106, 1)" stroke-width="2"></path><path d="M -172.37138242990466,115 C -76.37,158.8 115.63,333.4 307.62861757009534,334 C 499.63,334.6 595.63,114.2 787.6286175700953,118 C 979.63,121.8 1075.63,354.2 1267.6286175700952,353 C 1459.63,351.8 1713.15,91.4 1747.6286175700952,112 C 1782.1,132.6 1501.53,387.2 1440,456" stroke="rgba(252, 233, 106, 1)" stroke-width="2"></path></g><defs><mask id="SvgjsMask1003"><rect width="1440" height="560" fill="#ffffff"></rect></mask></defs></svg>